/vscmnt/brussel_pixiu_data/_data_brussel/112/vsc11236/PredSimResults/SUBJ10opt3D/trackIG/worker_01.mot
version=1
nRows=4
nColumns=50
inDegrees=yes
endheader
                time	         pelvis_tilt	         pelvis_list	     pelvis_rotation	           pelvis_tx	           pelvis_ty	           pelvis_tz	       hip_flexion_r	     hip_adduction_r	      hip_rotation_r	        knee_angle_r	       ankle_angle_r	         mtp_angle_r	       hip_flexion_l	     hip_adduction_l	      hip_rotation_l	        knee_angle_l	       ankle_angle_l	         mtp_angle_l	    lumbar_extension	      lumbar_bending	     lumbar_rotation	 ercspn_r/activation	 intobl_r/activation	 extobl_r/activation	    abd_r/activation	    add_r/activation	hamstrings_r/activation	bifemsh_r/activation	glut_max_r/activation	iliopsoas_r/activation	rect_fem_r/activation	  vasti_r/activation	gastroc_r/activation	 soleus_r/activation	tib_ant_r/activation	 ercspn_l/activation	 intobl_l/activation	 extobl_l/activation	    abd_l/activation	    add_l/activation	hamstrings_l/activation	bifemsh_l/activation	glut_max_l/activation	iliopsoas_l/activation	rect_fem_l/activation	  vasti_l/activation	gastroc_l/activation	 soleus_l/activation	tib_ant_l/activation	
          2.34457698	          0.24645230	          3.09431864	        -10.39498628	          1.40674619	          0.84688071	          0.02394069	        -13.14207240	         -3.61415731	          0.00756536	         -5.59765672	         12.34620718	         15.69342255	         21.26508274	          0.65608015	         -4.21023643	        -10.34176082	          0.71879462	          0.23534294	         -4.04327474	          1.08809177	          3.44448683	          0.04715350	          0.00999999	          0.00999999	          0.08794814	          0.00999999	          0.01000003	          0.19262270	          0.00999999	          0.22447258	          0.00999999	          0.00999999	          0.22012677	          0.20416537	          0.02089987	          0.10883314	          0.15920023	          0.00999999	          0.00999999	          0.14702278	          0.07026138	          0.11165304	          0.01000014	          0.06869406	          0.00999999	          0.00999999	          0.01360290	          0.01000001	          0.20141619	
          2.36020750	          0.16663791	          2.95125359	         -9.86766691	          1.41846445	          0.84536230	          0.02214900	        -13.33126745	         -3.51037803	         -1.02071081	         -6.81844399	         12.37693448	         16.94398022	         20.76274085	          0.89427296	         -3.95127982	        -10.72224208	          0.59901437	          0.23358249	         -3.78714289	          0.70075477	          3.81349117	          0.05886487	          0.00999999	          0.00999999	          0.07190892	          0.00999999	          0.01000003	          0.15281348	          0.00999999	          0.17808096	          0.00999999	          0.00999999	          0.20864412	          0.21066534	          0.01658051	          0.10099322	          0.16946998	          0.00999999	          0.00999999	          0.14621389	          0.06341743	          0.08857777	          0.01032943	          0.05449710	          0.00999999	          0.00999999	          0.01079160	          0.00999999	          0.22944286	
          2.37583801	          0.09152228	          2.82969421	         -9.27596646	          1.43040663	          0.84411159	          0.02021906	        -13.47736822	         -3.42983747	         -2.09273411	         -8.14318087	         12.24630431	         18.24978985	         20.28592477	          1.13430269	         -3.70803425	        -11.09659359	          0.34376240	          0.22961806	         -3.51399723	          0.25251323	          4.17951330	          0.06686490	          0.00999999	          0.00999999	          0.05892704	          0.00999999	          0.01000013	          0.12123161	          0.00999999	          0.14127708	          0.01000000	          0.00999999	          0.19310900	          0.21195218	          0.01315382	          0.09620140	          0.15706588	          0.00999999	          0.00999999	          0.13245848	          0.06521921	          0.07027146	          0.00999999	          0.04323421	          0.00999999	          0.02517259	          0.00999999	          0.00999999	          0.25903175	
          2.39146852	          0.02129259	          2.73074992	         -8.62052927	          1.44249206	          0.84328434	          0.01814525	        -13.53643467	         -3.37882977	         -3.19644219	         -9.63424400	         11.91982343	         19.59439220	         19.85274142	          1.38275604	         -3.54743721	        -11.53572341	          0.10150784	          0.22276200	         -3.23239482	         -0.25268658	          4.53965081	          0.07264816	          0.00999999	          0.00999999	          0.04674862	          0.00999999	          0.01425347	          0.09617675	          0.01000200	          0.11207943	          0.01000000	          0.00999999	          0.17386787	          0.20733162	          0.01043533	          0.08683759	          0.12951921	          0.00999999	          0.00999999	          0.10508338	          0.07060092	          0.05574850	          0.00999999	          0.03429903	          0.00999999	          0.04835777	          0.00999999	          0.00999999	          0.27536736	
